<svg id="pinterest" xmlns="http://www.w3.org/2000/svg" xmlns:xlink="http://www.w3.org/1999/xlink" width="106" height="106" viewBox="0 0 106 106">
  <defs>
    <style>
      .cls-1, .cls-2 {
        fill: #dedede;
      }

      .cls-1 {
        fill-rule: evenodd;
        filter: url(#filter);
      }

      .cls-2 {
        fill-opacity: 0;
        stroke: #dedede;
        stroke-linejoin: round;
        stroke-width: 4px;
        filter: url(#filter-2);
      }
    </style>
    <filter id="filter" x="21.969" y="21.969" width="64.031" height="65.031" filterUnits="userSpaceOnUse">
      <feOffset result="offset" dx="2.5" dy="4.33" in="SourceAlpha"/>
      <feGaussianBlur result="blur"/>
      <feFlood result="flood" flood-opacity="0.1"/>
      <feComposite result="composite" operator="in" in2="blur"/>
      <feBlend result="blend" in="SourceGraphic"/>
    </filter>
    <filter id="filter-2" x="4" y="4" width="99" height="100" filterUnits="userSpaceOnUse">
      <feOffset result="offset" dx="2.5" dy="4.33" in="SourceAlpha"/>
      <feGaussianBlur result="blur"/>
      <feFlood result="flood" flood-opacity="0.1"/>
      <feComposite result="composite" operator="in" in2="blur"/>
      <feBlend result="blend" in="SourceGraphic"/>
    </filter>
  </defs>
  <path class="cls-1" d="M52,21.969A30.031,30.031,0,0,0,39.946,79.5a26.375,26.375,0,0,1,.523-6.9c0.578-2.438,3.864-16.363,3.864-16.363a11.538,11.538,0,0,1-.96-4.752c0-4.45,2.579-7.774,5.792-7.774,2.731,0,4.051,2.052,4.051,4.508,0,2.746-1.751,6.854-2.652,10.658A4.648,4.648,0,0,0,55.3,64.67c5.69,0,9.522-7.307,9.522-15.966,0-6.582-4.433-11.508-12.5-11.508-9.11,0-14.785,6.793-14.785,14.381a8.669,8.669,0,0,0,1.98,5.89,1.456,1.456,0,0,1,.432,1.674c-0.144.553-.475,1.883-0.612,2.41a1.035,1.035,0,0,1-1.5.752c-4.2-1.713-6.15-6.308-6.15-11.473,0-8.531,7.194-18.76,21.462-18.76,11.465,0,19.011,8.3,19.011,17.2,0,11.78-6.549,20.582-16.2,20.582-3.242,0-6.292-1.753-7.336-3.744,0,0-1.743,6.919-2.113,8.256A25.143,25.143,0,0,1,43.49,80.8,30.03,30.03,0,1,0,52,21.969Z"/>
  <g style="fill: #dedede; filter: url(#filter-2)">
    <circle id="Shape_8_copy_28" data-name="Shape 8 copy 28" class="cls-2" cx="52" cy="52" r="48" style="stroke: inherit; filter: none; fill: inherit"/>
  </g>
  <use xlink:href="#Shape_8_copy_28" style="stroke: #dedede; filter: none; fill: none"/>
</svg>
